<svg xmlns="http://www.w3.org/2000/svg" viewBox="0 0 64 64">
  <!-- X=27.907 Y=46.75 -->
  <g id="svgGroup" stroke-linecap="round" fill-rule="evenodd" font-size="9pt" stroke="#345678" stroke-width="0.25mm" fill="#345678" transform="translate(18.0465, 8.625)">
    <path d="M 27.906 13.75 L 22.156 13.75 Q 22.156 11.188 21.328 9.203 Q 20.5 7.219 18.766 6.078 Q 17.031 4.938 14.25 4.938 Q 11.75 4.938 10.141 5.907 Q 8.531 6.875 7.766 8.532 Q 7 10.188 7 12.313 Q 7 13.75 7.5 14.922 Q 8 16.094 9.047 17.094 Q 10.094 18.094 11.672 18.938 Q 13.25 19.782 15.406 20.563 Q 18.75 21.657 21.125 23 Q 23.5 24.344 25 26.016 Q 26.5 27.688 27.203 29.797 Q 27.906 31.907 27.906 34.563 Q 27.906 37.344 26.984 39.594 Q 26.063 41.844 24.313 43.438 Q 22.563 45.032 20.094 45.891 Q 17.625 46.75 14.531 46.75 Q 11.844 46.75 9.266 45.875 Q 6.688 45 4.594 43.25 Q 2.5 41.5 1.25 38.922 Q 0 36.344 0 32.938 L 5.75 32.938 Q 5.75 35.282 6.438 36.953 Q 7.125 38.625 8.344 39.719 Q 9.563 40.813 11.141 41.328 Q 12.719 41.844 14.531 41.844 Q 17.031 41.844 18.734 40.969 Q 20.438 40.094 21.297 38.469 Q 22.156 36.844 22.156 34.625 Q 22.156 33.032 21.781 31.797 Q 21.406 30.563 20.469 29.563 Q 19.531 28.563 17.844 27.657 Q 16.156 26.75 13.563 25.813 Q 10.75 24.813 8.469 23.578 Q 6.188 22.344 4.578 20.75 Q 2.969 19.157 2.094 17.094 Q 1.219 15.032 1.219 12.375 Q 1.219 9.719 2.141 7.469 Q 3.063 5.219 4.766 3.547 Q 6.469 1.875 8.875 0.938 Q 11.281 0 14.25 0 Q 18.688 0 21.734 1.953 Q 24.781 3.907 26.344 7.047 Q 27.906 10.188 27.906 13.75 Z" vector-effect="non-scaling-stroke"/>
  </g>
</svg>
