<svg width="357" height="77" viewBox="0 0 357 77" xmlns="http://www.w3.org/2000/svg">
  <!-- background: remove after finishing logo -->
  <g id="background" fill="#fff">
    <rect width="357" height="80" />
  </g>
  <!-- width="352.768" height="46.977" -->
  <g id="schneenet" stroke-linecap="round" fill-rule="evenodd" stroke="#345678" stroke-width="0.25mm" fill="#345678" transform="translate(2, 2)">
    <path d="M 165.376 0.64 L 165.376 46.336 L 148.096 46.336 L 134.08 14.144 L 133.824 14.144 L 133.888 15.264 Q 133.952 16.384 134.08 18.176 Q 134.208 19.968 134.304 21.984 Q 134.4 24 134.4 25.728 L 134.4 46.336 L 122.88 46.336 L 122.88 0.64 L 140.096 0.64 L 154.048 32.384 L 154.24 32.384 L 154.176 31.296 Q 154.112 30.208 154.016 28.48 Q 153.92 26.752 153.856 24.832 Q 153.792 22.912 153.792 21.312 L 153.792 0.64 L 165.376 0.64 Z M 281.6 0.64 L 281.6 46.336 L 264.32 46.336 L 250.304 14.144 L 250.048 14.144 L 250.112 15.264 Q 250.176 16.384 250.304 18.176 Q 250.432 19.968 250.528 21.984 Q 250.624 24 250.624 25.728 L 250.624 46.336 L 239.104 46.336 L 239.104 0.64 L 256.32 0.64 L 270.272 32.384 L 270.464 32.384 L 270.4 31.296 Q 270.336 30.208 270.24 28.48 Q 270.144 26.752 270.08 24.832 Q 270.016 22.912 270.016 21.312 L 270.016 0.64 L 281.6 0.64 Z M 114.432 0.64 L 114.432 46.336 L 101.248 46.336 L 101.248 27.712 L 89.792 27.712 L 89.792 46.336 L 76.672 46.336 L 76.672 0.64 L 89.792 0.64 L 89.792 17.6 L 101.248 17.6 L 101.248 0.64 L 114.432 0.64 Z M 0 44.096 L 0 33.088 Q 3.712 34.944 7.424 35.936 Q 11.136 36.928 13.824 36.928 Q 15.232 36.928 16.192 36.48 Q 17.152 36.032 17.632 35.264 Q 18.112 34.496 18.112 33.536 Q 18.112 32.32 17.536 31.488 Q 16.96 30.656 15.36 29.76 Q 13.76 28.864 10.688 27.584 Q 6.848 25.984 4.544 24.192 Q 2.24 22.4 1.216 19.84 Q 0.192 17.28 0.192 13.376 Q 0.192 8.96 2.4 5.984 Q 4.608 3.008 8.448 1.504 Q 12.288 0 17.28 0 Q 22.016 0 25.568 0.992 Q 29.12 1.984 31.36 3.264 L 27.456 12.8 Q 24.896 11.456 22.016 10.656 Q 19.136 9.856 16.896 9.856 Q 15.552 9.856 14.72 10.24 Q 13.888 10.624 13.504 11.296 Q 13.12 11.968 13.12 12.8 Q 13.12 13.888 13.856 14.72 Q 14.592 15.552 16.48 16.544 Q 18.368 17.536 21.76 19.2 Q 24.832 20.608 26.944 22.336 Q 29.056 24.064 30.144 26.464 Q 31.232 28.864 31.232 32.448 Q 31.232 36.16 29.536 39.488 Q 27.84 42.816 24 44.896 Q 20.16 46.976 13.824 46.976 Q 10.496 46.976 8.224 46.688 Q 5.952 46.4 4.096 45.76 Q 2.24 45.12 0 44.096 Z M 199.744 36.288 L 199.744 46.336 L 173.824 46.336 L 173.824 0.64 L 199.744 0.64 L 199.744 10.56 L 186.88 10.56 L 186.88 17.728 L 198.784 17.728 L 198.784 27.648 L 186.88 27.648 L 186.88 36.288 L 199.744 36.288 Z M 232.384 36.288 L 232.384 46.336 L 206.464 46.336 L 206.464 0.64 L 232.384 0.64 L 232.384 10.56 L 219.52 10.56 L 219.52 17.728 L 231.424 17.728 L 231.424 27.648 L 219.52 27.648 L 219.52 36.288 L 232.384 36.288 Z M 315.968 36.288 L 315.968 46.336 L 290.048 46.336 L 290.048 0.64 L 315.968 0.64 L 315.968 10.56 L 303.104 10.56 L 303.104 17.728 L 315.008 17.728 L 315.008 27.648 L 303.104 27.648 L 303.104 36.288 L 315.968 36.288 Z M 68.736 33.984 L 68.736 44.416 Q 65.92 45.76 62.784 46.368 Q 59.648 46.976 56.384 46.976 Q 49.152 46.976 44.608 44.032 Q 40.064 41.088 37.952 35.808 Q 35.84 30.528 35.84 23.616 Q 35.84 18.432 37.216 14.112 Q 38.592 9.792 41.312 6.624 Q 44.032 3.456 47.968 1.728 Q 51.904 0 57.024 0 Q 60.096 0 63.872 0.832 Q 67.648 1.664 70.72 3.2 L 66.816 12.928 Q 64.64 11.712 62.432 10.912 Q 60.224 10.112 57.472 10.112 Q 55.424 10.112 53.856 11.04 Q 52.288 11.968 51.232 13.728 Q 50.176 15.488 49.664 17.984 Q 49.152 20.48 49.152 23.68 Q 49.152 27.968 50.208 30.912 Q 51.264 33.856 53.344 35.36 Q 55.424 36.864 58.496 36.864 Q 61.312 36.864 63.84 36.032 Q 66.368 35.2 68.736 33.984 Z M 342.976 10.752 L 342.976 46.336 L 329.92 46.336 L 329.92 10.752 L 320.128 10.752 L 320.128 0.64 L 352.768 0.64 L 352.768 10.752 L 342.976 10.752 Z" vector-effect="non-scaling-stroke" />
  </g>
  <!-- width="187.904" height="24.64" -->
  <g id="services" stroke-linecap="round" fill-rule="evenodd" font-size="9pt" stroke="#345678" stroke-width="0.25mm" fill="#345678" transform="translate(2, 51)">
    <path transform="translate(0, 0)" d="M 6.72 24.64 Q 5.152 24.64 3.904 24.304 Q 2.656 23.968 1.776 23.376 Q 0.896 22.784 0.448 21.984 Q 0 21.184 0 20.224 Q 0 19.488 0.272 18.992 Q 0.544 18.496 1.056 18.24 Q 1.568 17.984 2.304 17.984 Q 2.336 20.064 2.832 21.488 Q 3.328 22.912 4.352 23.616 Q 5.376 24.32 6.944 24.32 Q 8.992 24.32 10.256 23.12 Q 11.52 21.92 11.52 19.584 Q 11.52 18.144 10.992 17.248 Q 10.464 16.352 9.296 15.632 Q 8.128 14.912 6.24 14.048 Q 5.248 13.568 4.208 13.008 Q 3.168 12.448 2.288 11.664 Q 1.408 10.88 0.88 9.744 Q 0.352 8.608 0.352 7.04 Q 0.352 5.12 1.184 3.808 Q 2.016 2.496 3.536 1.824 Q 5.056 1.152 7.104 1.152 Q 8.992 1.152 10.384 1.664 Q 11.776 2.176 12.56 3.008 Q 13.344 3.84 13.344 4.832 Q 13.344 5.76 12.64 6.288 Q 11.936 6.816 10.816 6.816 Q 10.816 4.16 9.952 2.816 Q 9.088 1.472 7.072 1.472 Q 5.856 1.472 4.928 1.968 Q 4 2.464 3.504 3.44 Q 3.008 4.416 3.008 5.888 Q 3.008 7.456 3.584 8.416 Q 4.16 9.376 5.328 10.064 Q 6.496 10.752 8.256 11.584 Q 9.856 12.32 11.216 13.12 Q 12.576 13.92 13.408 15.136 Q 14.24 16.352 14.24 18.336 Q 14.24 20.288 13.36 21.696 Q 12.48 23.104 10.8 23.872 Q 9.12 24.64 6.72 24.64 Z" id="0" vector-effect="non-scaling-stroke" />
    <path transform="translate(11.497, 0)" d="M 31.392 14.496 L 31.392 15.264 L 20.736 15.264 Q 20.768 18.528 21.216 20.512 Q 21.664 22.496 22.672 23.408 Q 23.68 24.32 25.312 24.32 Q 26.528 24.32 27.472 23.872 Q 28.416 23.424 29.056 22.544 Q 29.696 21.664 29.92 20.384 Q 30.304 20.448 30.496 20.768 Q 30.688 21.088 30.688 21.44 Q 30.688 22.08 30.08 22.832 Q 29.472 23.584 28.272 24.112 Q 27.072 24.64 25.216 24.64 Q 21.632 24.64 19.632 22.336 Q 17.632 20.032 17.632 15.872 Q 17.632 11.392 19.488 9.12 Q 21.344 6.848 24.736 6.848 Q 27.84 6.848 29.616 8.768 Q 31.392 10.688 31.392 14.496 Z M 20.736 14.944 L 28.16 14.944 Q 28.16 12.128 27.808 10.432 Q 27.456 8.736 26.688 7.952 Q 25.92 7.168 24.672 7.168 Q 23.36 7.168 22.528 7.952 Q 21.696 8.736 21.28 10.432 Q 20.864 12.128 20.736 14.944 Z" id="1" vector-effect="non-scaling-stroke" />
    <path transform="translate(24.529, 0)" d="M 42.816 24.32 L 33.728 24.32 L 33.728 24 L 34.144 24 Q 35.104 24 35.68 23.744 Q 36.256 23.488 36.512 22.944 Q 36.768 22.4 36.768 21.536 L 36.768 9.984 Q 36.768 9.088 36.512 8.544 Q 36.256 8 35.68 7.744 Q 35.104 7.488 34.144 7.488 L 34.048 7.488 L 34.048 7.168 L 39.744 7.168 L 39.744 10.368 L 39.808 10.368 Q 40.032 9.536 40.48 8.736 Q 40.928 7.936 41.84 7.392 Q 42.752 6.848 44.288 6.848 Q 45.888 6.848 46.736 7.472 Q 47.584 8.096 47.584 9.216 Q 47.584 10.176 46.896 10.816 Q 46.208 11.456 44.608 11.456 Q 44.608 9.472 43.936 8.72 Q 43.264 7.968 42.432 7.968 Q 41.504 7.968 40.96 8.624 Q 40.416 9.28 40.16 10.32 Q 39.904 11.36 39.84 12.464 Q 39.776 13.568 39.776 14.496 L 39.776 21.376 Q 39.776 22.336 40.032 22.912 Q 40.288 23.488 40.88 23.744 Q 41.472 24 42.4 24 L 42.816 24 L 42.816 24.32 Z" id="2" vector-effect="non-scaling-stroke" />
    <path transform="translate(39.194, 0)" d="M 55.712 24.32 L 50.208 9.184 Q 49.984 8.544 49.712 8.176 Q 49.44 7.808 49.088 7.648 Q 48.736 7.488 48.192 7.488 L 48.192 7.168 L 56.192 7.168 L 56.192 7.488 L 55.424 7.488 Q 54.4 7.488 53.904 7.76 Q 53.408 8.032 53.408 8.704 Q 53.408 8.992 53.504 9.36 Q 53.6 9.728 53.76 10.208 L 56.288 17.28 Q 56.704 18.432 57.008 19.312 L 57.616 21.072 Q 57.92 21.952 58.304 23.168 Q 58.496 22.56 58.656 22.048 Q 58.816 21.536 59.008 20.992 Q 59.2 20.448 59.456 19.744 L 62.688 10.4 Q 62.848 9.888 62.944 9.504 Q 63.04 9.12 63.04 8.8 Q 63.04 8.064 62.48 7.776 Q 61.92 7.488 60.704 7.488 L 59.648 7.488 L 59.648 7.168 L 66.496 7.168 L 66.496 7.488 L 65.6 7.488 Q 64.992 7.488 64.56 7.712 Q 64.128 7.936 63.808 8.48 Q 63.488 9.024 63.168 9.984 L 58.24 24.32 L 55.712 24.32 Z" id="3" vector-effect="non-scaling-stroke" />
    <path transform="translate(49.187, 0)" d="M 76.416 24.32 L 67.328 24.32 L 67.328 24 L 67.744 24 Q 68.704 24 69.28 23.744 Q 69.856 23.488 70.112 22.944 Q 70.368 22.4 70.368 21.536 L 70.368 9.984 Q 70.368 9.088 70.112 8.544 Q 69.856 8 69.28 7.744 Q 68.704 7.488 67.744 7.488 L 67.648 7.488 L 67.648 7.168 L 73.376 7.168 L 73.376 21.376 Q 73.376 22.336 73.632 22.912 Q 73.888 23.488 74.48 23.744 Q 75.072 24 76 24 L 76.416 24 L 76.416 24.32 Z M 71.712 4.096 Q 71.104 4.096 70.704 3.696 Q 70.304 3.296 70.304 2.304 Q 70.304 1.28 70.704 0.896 Q 71.104 0.512 71.712 0.512 Q 72.288 0.512 72.704 0.896 Q 73.12 1.28 73.12 2.304 Q 73.12 3.296 72.704 3.696 Q 72.288 4.096 71.712 4.096 Z" id="4" vector-effect="non-scaling-stroke" />
    <path transform="translate(67.051, 0)" d="M 85.952 24.64 Q 83.776 24.64 82.112 23.76 Q 80.448 22.88 79.52 20.896 Q 78.592 18.912 78.592 15.68 Q 78.592 12.384 79.536 10.448 Q 80.48 8.512 82.08 7.68 Q 83.68 6.848 85.696 6.848 Q 87.04 6.848 88.336 7.2 Q 89.632 7.552 90.464 8.272 Q 91.296 8.992 91.296 10.176 Q 91.296 10.88 90.96 11.312 Q 90.624 11.744 90 11.936 Q 89.376 12.128 88.448 12.128 Q 88.448 10.432 88.208 9.328 Q 87.968 8.224 87.36 7.696 Q 86.752 7.168 85.632 7.168 Q 84.48 7.168 83.584 7.888 Q 82.688 8.608 82.192 10.448 Q 81.696 12.288 81.696 15.712 Q 81.696 18.848 82.176 20.752 Q 82.656 22.656 83.712 23.488 Q 84.768 24.32 86.432 24.32 Q 87.488 24.32 88.336 23.968 Q 89.184 23.616 89.808 22.736 Q 90.432 21.856 90.784 20.32 Q 91.104 20.384 91.28 20.64 Q 91.456 20.896 91.456 21.344 Q 91.456 22.112 90.848 22.864 Q 90.24 23.616 89.024 24.128 Q 87.808 24.64 85.952 24.64 Z" id="5" vector-effect="non-scaling-stroke" />
    <path transform="translate(80.436, 0)" d="M 108.096 14.496 L 108.096 15.264 L 97.44 15.264 Q 97.472 18.528 97.92 20.512 Q 98.368 22.496 99.376 23.408 Q 100.384 24.32 102.016 24.32 Q 103.232 24.32 104.176 23.872 Q 105.12 23.424 105.76 22.544 Q 106.4 21.664 106.624 20.384 Q 107.008 20.448 107.2 20.768 Q 107.392 21.088 107.392 21.44 Q 107.392 22.08 106.784 22.832 Q 106.176 23.584 104.976 24.112 Q 103.776 24.64 101.92 24.64 Q 98.336 24.64 96.336 22.336 Q 94.336 20.032 94.336 15.872 Q 94.336 11.392 96.192 9.12 Q 98.048 6.848 101.44 6.848 Q 104.544 6.848 106.32 8.768 Q 108.096 10.688 108.096 14.496 Z M 97.44 14.944 L 104.864 14.944 Q 104.864 12.128 104.512 10.432 Q 104.16 8.736 103.392 7.952 Q 102.624 7.168 101.376 7.168 Q 100.064 7.168 99.232 7.952 Q 98.4 8.736 97.984 10.432 Q 97.568 12.128 97.44 14.944 Z" id="6" vector-effect="non-scaling-stroke" />
    <path transform="translate(92.765, 0)" d="M 116.544 24.64 Q 114.944 24.64 113.728 24.256 Q 112.512 23.872 111.824 23.12 Q 111.136 22.368 111.136 21.248 Q 111.136 20.384 111.488 19.904 Q 111.84 19.424 112.304 19.232 Q 112.768 19.04 113.152 19.04 Q 113.152 20.768 113.472 21.936 Q 113.792 23.104 114.56 23.712 Q 115.328 24.32 116.608 24.32 Q 118.304 24.32 119.296 23.44 Q 120.288 22.56 120.288 20.832 Q 120.288 19.712 119.904 19.056 Q 119.52 18.4 118.64 17.888 Q 117.76 17.376 116.192 16.704 Q 114.368 15.904 113.312 15.152 Q 112.256 14.4 111.808 13.504 Q 111.36 12.608 111.36 11.392 Q 111.36 9.216 112.896 8.048 Q 114.432 6.88 117.152 6.88 Q 118.688 6.88 119.792 7.28 Q 120.896 7.68 121.472 8.352 Q 122.048 9.024 122.048 9.824 Q 122.048 10.688 121.456 11.216 Q 120.864 11.744 119.744 11.744 Q 119.744 9.28 119.072 8.24 Q 118.4 7.2 116.992 7.2 Q 115.904 7.2 115.184 7.552 Q 114.464 7.904 114.096 8.576 Q 113.728 9.248 113.728 10.272 Q 113.728 11.392 114.176 12.064 Q 114.624 12.736 115.568 13.216 Q 116.512 13.696 117.92 14.304 Q 119.744 15.04 120.8 15.792 Q 121.856 16.544 122.288 17.456 Q 122.72 18.368 122.72 19.616 Q 122.72 22.112 121.056 23.376 Q 119.392 24.64 116.544 24.64 Z" id="7" vector-effect="non-scaling-stroke" />
    <path transform="translate(129.614, 0)" d="M 149.696 24.32 L 132.544 24.32 L 132.544 24 L 132.96 24 Q 133.824 24 134.416 23.744 Q 135.008 23.488 135.296 22.976 Q 135.584 22.464 135.584 21.696 L 135.584 3.968 Q 135.584 3.232 135.296 2.752 Q 135.008 2.272 134.416 2.032 Q 133.824 1.792 132.96 1.792 L 132.544 1.792 L 132.544 1.472 L 141.856 1.472 L 141.856 1.792 L 141.44 1.792 Q 140.576 1.792 139.984 2.048 Q 139.392 2.304 139.104 2.816 Q 138.816 3.328 138.816 4.096 L 138.816 24 L 144.736 24 Q 146.432 24 147.44 23.504 Q 148.448 23.008 148.928 21.792 Q 149.408 20.576 149.536 18.496 L 149.6 17.44 L 149.92 17.44 L 149.696 24.32 Z" id="9" vector-effect="non-scaling-stroke" />
    <path transform="translate(139.415, 0)" d="M 154.304 19.68 L 154.304 7.488 L 151.872 7.488 L 151.872 7.168 Q 153.024 7.168 153.872 6.96 Q 154.72 6.752 155.328 6.304 Q 155.968 5.856 156.368 5.088 Q 156.768 4.32 156.992 3.232 L 157.312 3.232 L 157.312 7.168 L 161.792 7.168 L 161.792 7.488 L 157.312 7.488 L 157.312 20.864 Q 157.312 22.528 157.952 23.36 Q 158.592 24.192 159.84 24.192 Q 160.288 24.192 160.768 24.096 Q 161.248 24 161.792 23.808 L 161.792 24.128 Q 161.376 24.32 160.544 24.48 Q 159.712 24.64 158.944 24.64 Q 156.512 24.64 155.408 23.536 Q 154.304 22.432 154.304 19.68 Z" id="10" vector-effect="non-scaling-stroke" />
    <path transform="translate(156.127, 0)" d="M 175.712 11.616 L 175.776 11.616 Q 175.744 10.464 175.728 9.36 Q 175.712 8.256 175.712 7.344 L 175.712 5.888 L 175.712 2.816 Q 175.712 1.92 175.456 1.376 Q 175.2 0.832 174.624 0.576 Q 174.048 0.32 173.088 0.32 L 172.992 0.32 L 172.992 0 L 178.72 0 L 178.72 21.536 Q 178.72 22.4 178.976 22.944 Q 179.232 23.488 179.824 23.744 Q 180.416 24 181.344 24 L 181.6 24 L 181.6 24.32 L 175.744 24.32 L 175.744 19.808 L 175.68 19.808 Q 175.264 22.272 174.032 23.456 Q 172.8 24.64 170.72 24.64 Q 168.64 24.64 167.2 23.632 Q 165.76 22.624 165.024 20.624 Q 164.288 18.624 164.288 15.712 Q 164.288 12.768 165.008 10.8 Q 165.728 8.832 167.152 7.84 Q 168.576 6.848 170.656 6.848 Q 172.832 6.848 174.064 8.016 Q 175.296 9.184 175.712 11.616 Z M 171.264 24.16 Q 173.536 24.16 174.624 22.08 Q 175.712 20 175.712 15.712 Q 175.712 12.928 175.248 11.072 Q 174.784 9.216 173.824 8.272 Q 172.864 7.328 171.296 7.328 Q 169.888 7.328 169.024 8.16 Q 168.16 8.992 167.776 10.832 Q 167.392 12.672 167.392 15.68 Q 167.392 18.72 167.776 20.592 Q 168.16 22.464 169.024 23.312 Q 169.888 24.16 171.264 24.16 Z" id="11" vector-effect="non-scaling-stroke" />
    <path transform="translate(165.096, 0)" d="M 186.176 24.544 Q 185.312 24.544 184.88 24 Q 184.448 23.456 184.448 22.368 Q 184.448 21.28 184.88 20.736 Q 185.312 20.192 186.176 20.192 Q 187.04 20.192 187.472 20.736 Q 187.904 21.28 187.904 22.368 Q 187.904 23.456 187.472 24 Q 187.04 24.544 186.176 24.544 Z" id="12" vector-effect="non-scaling-stroke" />
  </g>
</svg>
